{"title":"Upside Down 2012 BRRip XViD UNiQUE","uid":7936318,"size":1509185624,"categoryP":"video","categoryS":"movies","magnet":"?xt=urn:btih:be093760812f02407388205025ff4497f9ce30a0&amp;dn=Upside+Down+2012+BRRip+XViD+UNiQUE&amp;tr=udp%3A%2F%2Ftracker.openbittorrent.com%3A80&amp;tr=udp%3A%2F%2Fopen.demonii.com%3A1337&amp;tr=udp%3A%2F%2Ftracker.coppersurfer.tk%3A6969&amp;tr=udp%3A%2F%2Fexodus.desync.com%3A6969","seeders":1,"leechers":0,"uploader":"tykoon123","files":-1,"time":1355867027,"description":"Poster: &lt;a href=&quot;\nhttp://imgr.us/images/muw2dwb8tnghzktlh8qx.jpg&quot; rel=&quot;nofollow&quot; target=&quot;_NEW&quot;&gt;\nhttp://imgr.us/images/muw2dwb8tnghzktlh8qx.jpg&lt;/a&gt;\n\nInfo:\n\nFormat : AVI\nFormat/Info : Audio Video Interleave\nFile size : 1.40 GiB\nDuration : 1h 47mn\nOverall bit rate : 1 853 Kbps\nWriting application : VirtualDubMod 1.5.10.3 | www.virtualdub-fr.org || (build 2550/release)\nWriting library : VirtualDubMod build 2550/release\n\nVideo\nID : 0\nFormat : MPEG-4 Visual\nFormat profile : Advanced Simple@L5\nFormat settings, BVOP : 2\nFormat settings, QPel : No\nFormat settings, GMC : No warppoints\nFormat settings, Matrix : Default (H.263)\nMuxing mode : Packed bitstream\nCodec ID : XVID\nCodec ID/Hint : XviD\nDuration : 1h 47mn\nBit rate : 1 715 Kbps\nWidth : 720 pixels\nHeight : 304 pixels\nDisplay aspect ratio : 2.35:1\nFrame rate : 23.976 fps\nColor space : YUV\nChroma subsampling : 4:2:0\nBit depth : 8 bits\nScan type : Progressive\nCompression mode : Lossy\nBits/(Pixel*Frame) : 0.327\nStream size : 1.29 GiB (93%)\nWriting library : XviD 64\n\nAudio\nID : 1\nFormat : AC-3\nFormat/Info : Audio Coding 3\nMode extension : CM (complete main)\nCodec ID : 2000\nDuration : 1h 47mn\nBit rate mode : Constant\nBit rate : 128 Kbps\nChannel(s) : 2 channels\nChannel positions : Front: L R\nSampling rate : 48.0 KHz\nBit depth : 16 bits\nCompression mode : Lossy\nStream size : 98.7 MiB (7%)\nAlignment : Split accross interleaves\nInterleave, duration : 42 ms (1.00 video frame)\nInterleave, preload duration : 500 ms\n\n\n\nSource Used ...............JYK 720p.............................Thanks\n\n\n\n\nSlight mistake with 2ch audio but im sure you gonna get plenty choices soon if this no good\n\n\n\nScreens:\n &lt;a href=&quot;\nhttp://imgr.us/images/9l681puw66wftghv57n.png&quot; rel=&quot;nofollow&quot; target=&quot;_NEW&quot;&gt;\nhttp://imgr.us/images/9l681puw66wftghv57n.png&lt;/a&gt; &lt;a href=&quot;\nhttp://imgr.us/images/vyp9vxtcn8i1j4c47x6b.png&quot; rel=&quot;nofollow&quot; target=&quot;_NEW&quot;&gt;\nhttp://imgr.us/images/vyp9vxtcn8i1j4c47x6b.png&lt;/a&gt; &lt;a href=&quot;\nhttp://imgr.us/images/5k74zqxcu20zqkw4ui54.png&quot; rel=&quot;nofollow&quot; target=&quot;_NEW&quot;&gt;\nhttp://imgr.us/images/5k74zqxcu20zqkw4ui54.png&lt;/a&gt; &lt;a href=&quot;\nhttp://imgr.us/images/cf8r5y9pvoscviut045n.png&quot; rel=&quot;nofollow&quot; target=&quot;_NEW&quot;&gt;\nhttp://imgr.us/images/cf8r5y9pvoscviut045n.png&lt;/a&gt;","torrent":{"xt":"urn:btih:be093760812f02407388205025ff4497f9ce30a0","amp;dn":"Upside+Down+2012+BRRip+XViD+UNiQUE","amp;tr":["udp%3A%2F%2Ftracker.openbittorrent.com%3A80","udp%3A%2F%2Fopen.demonii.com%3A1337","udp%3A%2F%2Ftracker.coppersurfer.tk%3A6969","udp%3A%2F%2Fexodus.desync.com%3A6969"],"infoHash":"be093760812f02407388205025ff4497f9ce30a0","infoHashBuffer":{"type":"Buffer","data":[190,9,55,96,129,47,2,64,115,136,32,80,37,255,68,151,249,206,48,160]},"announce":[],"urlList":[]}}